<?xml version="1.0" encoding="utf-8"?>
<!-- Generator: Adobe Illustrator 25.2.0, SVG Export Plug-In . SVG Version: 6.00 Build 0)  -->
<svg version="1.1" id="flask" xmlns:svgjs="http://svgjs.com/svgjs"
	 xmlns="http://www.w3.org/2000/svg" xmlns:xlink="http://www.w3.org/1999/xlink" x="0px" y="0px" viewBox="0 0 1000 1000"
	 style="enable-background:new 0 0 1000 1000;" xml:space="preserve">
<style type="text/css">
	.st0{fill:#CCCCCC;}
	.st1{fill:url(#SVGID_1_);}
	.st2{fill:#FFFFFF;}
</style>
<circle class="st0" cx="500" cy="500.5" r="489.5"/>
<linearGradient id="SVGID_1_" gradientUnits="userSpaceOnUse" x1="173.1309" y1="197.606" x2="829.7628" y2="805.071">
	<stop  offset="0" style="stop-color:#515151"/>
	<stop  offset="0.9976" style="stop-color:#0B0B0B"/>
</linearGradient>
<circle class="st1" cx="500" cy="500" r="458"/>
<g transform="matrix(8,0,0,8,100.31462669372559,106.65000534057617)">
	<g>
		<path class="st2" d="M77.1,83.4l-12.3-19c0,0,0-0.1-0.1-0.1l-5.2-8c-1.3-1.9-1.9-4.2-1.9-6.5v-20H59c2.3,0,4.1-1.8,4.1-4.1
			s-1.8-4.1-4.1-4.1h-18c-2.3,0-4.1,1.8-4.1,4.1s1.8,4.1,4.1,4.1h1.4v20c0,2.3-0.6,4.5-1.9,6.5l-5.2,8c0,0,0,0.1-0.1,0.1l-12.2,19
			c-1.5,2.3-1.6,5.2-0.3,7.6c1.3,2.4,3.8,3.9,6.5,3.9h41.8c2.7,0,5.2-1.5,6.5-3.9S78.5,85.6,77.1,83.4z M75.7,89.9
			c-1,1.7-2.8,2.9-4.9,2.9H29.1c-2.1,0-3.9-1.1-4.9-2.9c-1-1.7-0.9-3.9,0.2-5.6l12-18.5c0.1,0,0.2,0.1,0.4,0.1
			c0.4,0.2,0.9,0.4,1.8,0.4c0.3,0,0.5,0,0.9-0.1c0.5-0.1,0.9-0.5,0.8-1.1c-0.1-0.5-0.5-0.9-1.1-0.8c-0.1,0-0.3,0-0.4,0
			c-0.5,0-0.8-0.1-1.1-0.2h-0.1l4.5-7c0.3-0.5,0.6-1.2,1-1.7h5.2c0.5,0,1-0.4,1-1s-0.4-1-1-1h-4.4c0.3-1.1,0.5-2.3,0.5-3.5h3.9
			c0.5,0,1-0.4,1-1s-0.4-1-1-1h-3.9v-3.5h3.9c0.5,0,1-0.4,1-1c0-0.5-0.4-1-1-1h-3.9v-3.1h3.9c0.5,0,1-0.4,1-1c0-0.5-0.4-1-1-1h-3.9
			v-3.5h3.9c0.5,0,1-0.4,1-1s-0.4-1-1-1h-3.9v-3.6c0-0.5-0.4-1-1-1H41c-1.3,0-2.3-1-2.3-2.3c0-1.3,1-2.3,2.3-2.3h18.2
			c1.3,0,2.3,1,2.3,2.3c0,1.3-1,2.3-2.3,2.3h-2.4l0,0h-8.6c-0.5,0-1,0.4-1,1c0,0.5,0.4,1,1,1h7.7v20c0,2.7,0.8,5.3,2.2,7.4l4.5,7
			h-0.1c-0.3,0.1-0.5,0.2-1.1,0.2c-0.5,0-0.8-0.1-1.1-0.2c-0.4-0.2-0.9-0.4-1.8-0.4c-0.9,0-1.4,0.2-1.8,0.4
			c-0.3,0.1-0.5,0.2-1.1,0.2s-0.8-0.1-1.1-0.2c-0.4-0.2-0.9-0.4-1.8-0.4c-0.3,0-0.6,0-0.9,0.1c-0.5,0.1-0.9,0.6-0.8,1.1
			c0.1,0.5,0.6,0.9,1.1,0.8c0.1,0,0.3,0,0.5,0c0.5,0,0.8,0.1,1.1,0.2c0.4,0.2,0.9,0.4,1.8,0.4c0.9,0,1.4-0.2,1.8-0.4
			c0.3-0.1,0.5-0.2,1.1-0.2s0.8,0.1,1.1,0.2c0.4,0.2,0.9,0.4,1.8,0.4c1,0,1.4-0.2,1.8-0.4c0.1-0.1,0.2-0.1,0.4-0.1l12,18.5
			C76.6,86.1,76.7,88.2,75.7,89.9z"/>
		<path class="st2" d="M48.2,59h-4.9c-0.5,0-1,0.4-1,1s0.4,1,1,1h4.9c0.5,0,1-0.4,1-1C49,59.4,48.6,59,48.2,59z"/>
		<path class="st2" d="M48.2,64.3h-4.9c-0.5,0-1,0.4-1,1c0,0.5,0.4,1,1,1h4.9c0.5,0,1-0.4,1-1C49,64.7,48.6,64.3,48.2,64.3z"/>
		<path class="st2" d="M48.2,69.5h-4.9c-0.5,0-1,0.4-1,1c0,0.5,0.4,1,1,1h4.9c0.5,0,1-0.4,1-1C49.1,70,48.6,69.5,48.2,69.5z"/>
		<path class="st2" d="M48.2,74.8h-4.9c-0.5,0-1,0.4-1,1s0.4,1,1,1h4.9c0.5,0,1-0.4,1-1C49,75.3,48.6,74.8,48.2,74.8z"/>
		<path class="st2" d="M48.2,80.1h-4.9c-0.5,0-1,0.4-1,1c0,0.5,0.4,1,1,1h4.9c0.5,0,1-0.4,1-1C49,80.5,48.6,80.1,48.2,80.1z"/>
		<path class="st2" d="M48.2,85.4h-4.9c-0.5,0-1,0.4-1,1c0,0.5,0.4,1,1,1h4.9c0.5,0,1-0.4,1-1C49,85.8,48.6,85.4,48.2,85.4z"/>
		<path class="st2" d="M45.8,18.4c2.1,0,3.7-1.6,3.7-3.7S47.8,11,45.8,11c-2.1,0-3.7,1.6-3.7,3.7C42.2,16.7,43.9,18.4,45.8,18.4z
			 M45.8,12.9c1,0,1.8,0.8,1.8,1.7s-0.8,1.7-1.8,1.7c-1,0-1.7-0.8-1.7-1.7S44.8,12.9,45.8,12.9z"/>
		<path class="st2" d="M53.1,11.8c2.6,0,4.6-2.1,4.6-4.6s-2.1-4.6-4.6-4.6c-2.6,0-4.6,2.1-4.6,4.6S50.7,11.8,53.1,11.8z M53.1,4.4
			c1.5,0,2.8,1.3,2.8,2.8S54.6,10,53.1,10s-2.8-1.3-2.8-2.8S51.6,4.4,53.1,4.4z"/>
		<path class="st2" d="M46.8,3.3c1.6,0,2.9-1.3,2.9-2.9s-1.3-2.8-2.9-2.8c-1.6,0-2.9,1.3-2.9,2.9S45.1,3.3,46.8,3.3z M46.8-0.6
			c0.5,0,1,0.4,1,1s-0.4,1.1-1,1.1s-1-0.4-1-1S46.2-0.6,46.8-0.6z"/>
	</g>
</g>
</svg>
