<?xml version="1.0" encoding="utf-8"?>
<!-- Generator: Adobe Illustrator 25.2.0, SVG Export Plug-In . SVG Version: 6.00 Build 0)  -->
<svg version="1.1" id="flask" xmlns:svgjs="http://svgjs.com/svgjs"
	 xmlns="http://www.w3.org/2000/svg" xmlns:xlink="http://www.w3.org/1999/xlink" x="0px" y="0px" viewBox="0 0 1000 1000"
	 style="enable-background:new 0 0 1000 1000;" xml:space="preserve">
<style type="text/css">
	.st0{fill:#999999;}
	.st1{fill:url(#SVGID_1_);}
	.st2{fill:#FFFFFF;}
</style>
<circle class="st0" cx="500" cy="500.5" r="489.5"/>
<linearGradient id="SVGID_1_" gradientUnits="userSpaceOnUse" x1="173.1309" y1="197.606" x2="829.7628" y2="805.071">
	<stop  offset="0" style="stop-color:#515151"/>
	<stop  offset="0.9976" style="stop-color:#0B0B0B"/>
</linearGradient>
<circle class="st1" cx="500" cy="500" r="458"/>
<g transform="matrix(8,0,0,8,100.31462669372559,106.65000534057617)">
	<g>
		<path class="st2" d="M75.1,83.5L63.7,65.9c0,0,0-0.1-0.1-0.1l-4.8-7.4c-1.2-1.8-1.8-3.9-1.8-6V33.9h1.3c2.1,0,3.8-1.7,3.8-3.8
			s-1.7-3.8-3.8-3.8H41.6c-2.1,0-3.8,1.7-3.8,3.8s1.7,3.8,3.8,3.8h1.3v18.5c0,2.1-0.6,4.2-1.8,6l-4.8,7.4c0,0,0,0.1-0.1,0.1
			L24.9,83.5c-1.4,2.1-1.5,4.8-0.3,7s3.5,3.6,6,3.6h38.7c2.5,0,4.8-1.4,6-3.6S76.4,85.6,75.1,83.5z M73.8,89.6
			c-0.9,1.6-2.6,2.7-4.5,2.7H30.6c-1.9,0-3.6-1-4.5-2.7c-0.9-1.6-0.8-3.6,0.2-5.2l11.1-17.1c0.1,0,0.2,0.1,0.4,0.1
			c0.4,0.2,0.8,0.4,1.7,0.4c0.3,0,0.5,0,0.8-0.1c0.5-0.1,0.8-0.5,0.7-1s-0.5-0.8-1-0.7c-0.1,0-0.3,0-0.4,0c-0.5,0-0.7-0.1-1-0.2
			h-0.1l4.2-6.5c0.3-0.5,0.6-1.1,0.9-1.6h4.8c0.5,0,0.9-0.4,0.9-0.9s-0.4-0.9-0.9-0.9h-4.1c0.3-1,0.5-2.1,0.5-3.2h3.6
			c0.5,0,0.9-0.4,0.9-0.9s-0.4-0.9-0.9-0.9h-3.6v-3.2h3.6c0.5,0,0.9-0.4,0.9-0.9s-0.4-0.9-0.9-0.9h-3.6V43h3.6
			c0.5,0,0.9-0.4,0.9-0.9s-0.4-0.9-0.9-0.9h-3.6V38h3.6c0.5,0,0.9-0.4,0.9-0.9s-0.4-0.9-0.9-0.9h-3.6v-3.3c0-0.5-0.4-0.9-0.9-0.9
			h-2.2c-1.2,0-2.1-0.9-2.1-2.1s0.9-2.1,2.1-2.1h16.9c1.2,0,2.1,0.9,2.1,2.1S59.8,32,58.6,32h-2.2l0,0h-8c-0.5,0-0.9,0.4-0.9,0.9
			s0.4,0.9,0.9,0.9h7.1v18.5c0,2.5,0.7,4.9,2,6.9l4.2,6.5h-0.1c-0.3,0.1-0.5,0.2-1,0.2s-0.7-0.1-1-0.2c-0.4-0.2-0.8-0.4-1.7-0.4
			c-0.8,0-1.3,0.2-1.7,0.4c-0.3,0.1-0.5,0.2-1,0.2s-0.7-0.1-1-0.2c-0.4-0.2-0.8-0.4-1.7-0.4c-0.3,0-0.6,0-0.8,0.1
			c-0.5,0.1-0.8,0.6-0.7,1c0.1,0.5,0.6,0.8,1,0.7c0.1,0,0.3,0,0.5,0c0.5,0,0.7,0.1,1,0.2c0.4,0.2,0.8,0.4,1.7,0.4
			c0.8,0,1.3-0.2,1.7-0.4c0.3-0.1,0.5-0.2,1-0.2s0.7,0.1,1,0.2c0.4,0.2,0.8,0.4,1.7,0.4s1.3-0.2,1.7-0.4c0.1-0.1,0.2-0.1,0.4-0.1
			l11.1,17.1C74.6,86,74.7,88,73.8,89.6z"/>
		<path class="st2" d="M48.3,60.9h-4.5c-0.5,0-0.9,0.4-0.9,0.9s0.4,0.9,0.9,0.9h4.5c0.5,0,0.9-0.4,0.9-0.9
			C49.1,61.3,48.7,60.9,48.3,60.9z"/>
		<path class="st2" d="M48.3,65.8h-4.5c-0.5,0-0.9,0.4-0.9,0.9s0.4,0.9,0.9,0.9h4.5c0.5,0,0.9-0.4,0.9-0.9
			C49.1,66.2,48.7,65.8,48.3,65.8z"/>
		<path class="st2" d="M48.3,70.7h-4.5c-0.5,0-0.9,0.4-0.9,0.9s0.4,0.9,0.9,0.9h4.5c0.5,0,0.9-0.4,0.9-0.9S48.7,70.7,48.3,70.7z"/>
		<path class="st2" d="M48.3,75.6h-4.5c-0.5,0-0.9,0.4-0.9,0.9s0.4,0.9,0.9,0.9h4.5c0.5,0,0.9-0.4,0.9-0.9
			C49.1,76,48.7,75.6,48.3,75.6z"/>
		<path class="st2" d="M48.3,80.5h-4.5c-0.5,0-0.9,0.4-0.9,0.9s0.4,0.9,0.9,0.9h4.5c0.5,0,0.9-0.4,0.9-0.9
			C49.1,80.9,48.7,80.5,48.3,80.5z"/>
		<path class="st2" d="M48.3,85.4h-4.5c-0.5,0-0.9,0.4-0.9,0.9s0.4,0.9,0.9,0.9h4.5c0.5,0,0.9-0.4,0.9-0.9
			C49.1,85.8,48.7,85.4,48.3,85.4z"/>
		<path class="st2" d="M46.1,23.3c1.9,0,3.4-1.5,3.4-3.4s-1.5-3.4-3.4-3.4s-3.4,1.5-3.4,3.4C42.8,21.7,44.3,23.3,46.1,23.3z
			 M46.1,18.2c0.9,0,1.7,0.7,1.7,1.6s-0.7,1.6-1.7,1.6c-0.9,0-1.6-0.7-1.6-1.6S45.2,18.2,46.1,18.2z"/>
		<path class="st2" d="M52.9,17.2c2.4,0,4.3-1.9,4.3-4.3s-1.9-4.3-4.3-4.3c-2.4,0-4.3,1.9-4.3,4.3S50.6,17.2,52.9,17.2z M52.9,10.3
			c1.4,0,2.6,1.2,2.6,2.6s-1.2,2.6-2.6,2.6s-2.6-1.2-2.6-2.6S51.5,10.3,52.9,10.3z"/>
		<path class="st2" d="M47,9.3c1.5,0,2.7-1.2,2.7-2.7S48.5,4,47,4s-2.7,1.2-2.7,2.7S45.5,9.3,47,9.3z M47,5.7c0.5,0,0.9,0.4,0.9,0.9
			s-0.4,1-0.9,1s-0.9-0.4-0.9-0.9S46.5,5.7,47,5.7z"/>
	</g>
</g>
</svg>
