<?xml version="1.0" encoding="UTF-8"?>
<svg id="transparent" xmlns="http://www.w3.org/2000/svg" viewBox="0 0 1000 1000">
  <defs>
    <style>
      .cls-1 {
        fill: #0b5ed7;
      }

      .cls-2 {
        fill: #fff;
      }

      .cls-3 {
        fill: #212529;
      }
    </style>
  </defs>
  <ellipse id="background" class="cls-3" cx="499.09" cy="499.5" rx="500.91" ry="500.5"/>
  <g id="flask">
    <path class="cls-2" d="m585.22,228.27v32.75h-35.36c-9.72,0-16.79,7.56-16.79,15.95,0,9.24,7.96,15.95,16.79,15.95h35.36v35.26h-35.36c-9.72,0-16.79,7.56-16.79,15.95,0,9.24,7.96,15.95,16.79,15.95h35.36v35.26h-35.36c-9.72,0-16.79,7.56-16.79,15.95,0,9.24,7.96,15.95,16.79,15.95h35.36v27.71c0,6.72,1.77,13.43,6.19,18.47,162.65,224.18,164.41,226.7,164.41,226.7,14.14,20.15,15.91,46.18,4.42,68.01h0c-12.38,21.83-36.24,36.1-61.88,36.1h-400.42c-23.87-1.68-45.96-15.11-57.46-35.26v-.84c-12.38-21.83-10.61-48.7,4.42-68.85l164.41-222.5c4.42-5.88,6.19-11.75,6.19-18.47v-230.06h169.72Zm-216.57-103.27h0c-5.3,0-9.72,1.68-12.38,5.04-3.54,3.36-5.3,7.56-5.3,11.75v70.53c0,4.2,1.77,8.4,5.3,11.75,3.54,3.36,7.96,5.04,12.38,5.04h11.49v229.22l-164.41,222.5c-22.1,30.23-24.75,69.69-7.07,102.43,16.79,31.07,50.38,51.22,87.51,53.74h401.31c38.89,0,74.25-20.99,92.81-53.74h0c17.68-32.75,15.03-71.37-6.19-101.59l-164.41-223.34v-229.22h11.49c9.72,0,16.79-7.56,16.79-15.95v-70.53c0-9.24-7.96-15.95-16.79-15.95l-262.53-1.68Z"/>
    <path class="cls-1" d="m559.59,549.01h0c-7.96,0-15.91.84-23.87,2.52-12.38,2.52-24.75,7.56-35.36,11.75h0c-11.49,5.04-21.21,8.4-30.05,10.92h0c-2.65.84-4.42.84-6.19.84h-6.19c-18.56,0-38.01-7.56-61.88-17.63-2.65-.84-5.3-.84-7.07-.84-5.3,0-10.61,2.52-14.14,7.56l-111.38,149.45c-9.72,13.43-10.61,31.07-3.54,45.34l.88,1.68c7.96,12.59,21.21,20.99,36.24,21.83h399.54c16.79,0,32.71-9.24,40.66-23.51,7.96-14.27,7.07-30.23-1.77-43.66l-109.61-150.29c-2.65-3.36-6.19-6.72-10.61-7.56-16.79-4.2-36.24-8.4-55.69-8.4h0Z"/>
    <g id="bubbles">
      <path class="cls-2" d="m562.24,611.14c7.07,0,13.26,5.88,13.26,12.59h0c0,6.72-6.19,12.59-13.26,12.59s-13.26-5.88-13.26-12.59h0c0-7.56,6.19-12.59,13.26-12.59h0Z"/>
      <path class="cls-2" d="m529.53,639.69c10.61,0,18.56,7.56,18.56,17.63s-7.96,17.63-18.56,17.63-18.56-7.56-18.56-17.63c0-9.24,7.96-17.63,18.56-17.63h0Z"/>
      <path class="cls-2" d="m564,678.31h0c13.26,0,24.75,10.08,24.75,23.51,0,12.59-10.61,23.51-24.75,23.51s-24.75-10.08-24.75-23.51,11.49-23.51,24.75-23.51h0Z"/>
    </g>
  </g>
</svg>