<?xml version="1.0" encoding="UTF-8"?>
<svg id="favicon" xmlns="http://www.w3.org/2000/svg" viewBox="0 0 1000 1000">
  <defs>
    <style>
      .cls-1 {
        fill: #0b5ed7;
      }

      .cls-2 {
        fill: #fff;
      }
    </style>
  </defs>
  <g id="flask">
    <path class="cls-2" d="m573,263.88v28.13h-28.85c-7.93,0-13.71,6.49-13.71,13.71,0,7.93,6.49,13.71,13.71,13.71h28.85v30.3h-28.85c-7.93,0-13.71,6.49-13.71,13.71,0,7.93,6.49,13.71,13.71,13.71h28.85v30.3h-28.85c-7.93,0-13.71,6.49-13.71,13.71,0,7.93,6.49,13.71,13.71,13.71h28.85v23.8c0,5.77,1.44,11.54,5.05,15.87,132.73,192.6,134.17,194.76,134.17,194.76,11.54,17.31,12.98,39.67,3.61,58.43h0c-10.1,18.75-29.57,31.02-50.49,31.02h-326.76c-19.48-1.44-37.51-12.98-46.89-30.3v-.72c-10.1-18.75-8.66-41.84,3.61-59.15l134.17-191.15c3.61-5.05,5.05-10.1,5.05-15.87v-197.65h138.5Zm-176.73-88.72h0c-4.33,0-7.93,1.44-10.1,4.33-2.89,2.89-4.33,6.49-4.33,10.1v60.59c0,3.61,1.44,7.21,4.33,10.1,2.89,2.89,6.49,4.33,10.1,4.33h9.38v196.92l-134.17,191.15c-18.03,25.97-20.2,59.87-5.77,88,13.71,26.69,41.12,44,71.41,46.17h327.48c31.74,0,60.59-18.03,75.74-46.17h0c14.43-28.13,12.26-61.31-5.05-87.28l-134.17-191.87v-196.92h9.38c7.93,0,13.71-6.49,13.71-13.71v-60.59c0-7.93-6.49-13.71-13.71-13.71l-214.24-1.44Z"/>
    <path class="cls-1" d="m552.09,539.43h0c-6.49,0-12.98.72-19.48,2.16-10.1,2.16-20.2,6.49-28.85,10.1h0c-9.38,4.33-17.31,7.21-24.53,9.38h0c-2.16.72-3.61.72-5.05.72h-5.05c-15.15,0-31.02-6.49-50.49-15.15-2.16-.72-4.33-.72-5.77-.72-4.33,0-8.66,2.16-11.54,6.49l-90.89,128.4c-7.93,11.54-8.66,26.69-2.89,38.95l.72,1.44c6.49,10.82,17.31,18.03,29.57,18.75h326.04c13.71,0,26.69-7.93,33.18-20.2,6.49-12.26,5.77-25.97-1.44-37.51l-89.45-129.12c-2.16-2.89-5.05-5.77-8.66-6.49-13.71-3.61-29.57-7.21-45.44-7.21h0Z"/>
    <g id="bubbles">
      <path class="cls-2" d="m554.25,592.81c5.77,0,10.82,5.05,10.82,10.82h0c0,5.77-5.05,10.82-10.82,10.82s-10.82-5.05-10.82-10.82h0c0-6.49,5.05-10.82,10.82-10.82h0Z"/>
      <path class="cls-2" d="m527.56,617.33c8.66,0,15.15,6.49,15.15,15.15s-6.49,15.15-15.15,15.15-15.15-6.49-15.15-15.15c0-7.93,6.49-15.15,15.15-15.15h0Z"/>
      <path class="cls-2" d="m555.69,650.51h0c10.82,0,20.2,8.66,20.2,20.2,0,10.82-8.66,20.2-20.2,20.2s-20.2-8.66-20.2-20.2,9.38-20.2,20.2-20.2h0Z"/>
    </g>
  </g>
</svg>