<?xml version="1.0" encoding="UTF-8"?>
<svg id="transparent" xmlns="http://www.w3.org/2000/svg" viewBox="0 0 1000 1000">
  <defs>
    <style>
      .cls-1 {
        fill: #0b5ed7;
      }

      .cls-2 {
        fill: #fff;
      }

      .cls-3 {
        fill: #212529;
      }
    </style>
  </defs>
  <ellipse id="background" class="cls-3" cx="499.09" cy="499.5" rx="495.23" ry="494.83"/>
  <g id="flask">
    <path class="cls-2" d="m588.91,217.39v34.16h-36.88c-10.14,0-17.52,7.88-17.52,16.64,0,9.63,8.3,16.64,17.52,16.64h36.88v36.78h-36.88c-10.14,0-17.52,7.88-17.52,16.64,0,9.63,8.3,16.64,17.52,16.64h36.88v36.78h-36.88c-10.14,0-17.52,7.88-17.52,16.64,0,9.63,8.3,16.64,17.52,16.64h36.88v28.9c0,7.01,1.84,14.01,6.45,19.27,169.65,233.83,171.49,236.46,171.49,236.46,14.75,21.02,16.6,48.17,4.61,70.94h0c-12.91,22.77-37.8,37.66-64.54,37.66h-417.67c-24.89-1.75-47.94-15.76-59.93-36.78v-.88c-12.91-22.77-11.06-50.8,4.61-71.81l171.49-232.08c4.61-6.13,6.45-12.26,6.45-19.27v-239.97h177.03Zm-225.89-107.72h0c-5.53,0-10.14,1.75-12.91,5.25-3.69,3.5-5.53,7.88-5.53,12.26v73.57c0,4.38,1.84,8.76,5.53,12.26,3.69,3.5,8.3,5.25,12.91,5.25h11.99v239.09l-171.49,232.08c-23.05,31.53-25.82,72.69-7.38,106.85,17.52,32.4,52.55,53.42,91.28,56.05h418.59c40.57,0,77.45-21.89,96.81-56.05h0c18.44-34.16,15.67-74.44-6.45-105.97l-171.49-232.96v-239.09h11.99c10.14,0,17.52-7.88,17.52-16.64v-73.57c0-9.63-8.3-16.64-17.52-16.64l-273.84-1.75Z"/>
    <path class="cls-1" d="m562.17,551.94h0c-8.3,0-16.6.88-24.89,2.63-12.91,2.63-25.82,7.88-36.88,12.26h0c-11.99,5.25-22.13,8.76-31.35,11.39h0c-2.77.88-4.61.88-6.45.88h-6.45c-19.36,0-39.65-7.88-64.54-18.39-2.77-.88-5.53-.88-7.38-.88-5.53,0-11.06,2.63-14.75,7.88l-116.17,155.89c-10.14,14.01-11.06,32.4-3.69,47.29l.92,1.75c8.3,13.14,22.13,21.89,37.8,22.77h416.75c17.52,0,34.11-9.63,42.41-24.52,8.3-14.89,7.38-31.53-1.84-45.54l-114.33-156.77c-2.77-3.5-6.45-7.01-11.06-7.88-17.52-4.38-37.8-8.76-58.09-8.76h0Z"/>
    <g id="bubbles">
      <path class="cls-2" d="m564.94,616.75c7.38,0,13.83,6.13,13.83,13.14h0c0,7.01-6.45,13.14-13.83,13.14s-13.83-6.13-13.83-13.14h0c0-7.88,6.45-13.14,13.83-13.14h0Z"/>
      <path class="cls-2" d="m530.82,646.52c11.06,0,19.36,7.88,19.36,18.39s-8.3,18.39-19.36,18.39-19.36-7.88-19.36-18.39c0-9.63,8.3-18.39,19.36-18.39h0Z"/>
      <path class="cls-2" d="m566.78,686.81h0c13.83,0,25.82,10.51,25.82,24.52,0,13.14-11.06,24.52-25.82,24.52s-25.82-10.51-25.82-24.52,11.99-24.52,25.82-24.52h0Z"/>
    </g>
  </g>
</svg>